<?xml version="1.0" encoding="UTF-8"?>
<svg xmlns="http://www.w3.org/2000/svg" version="1.1" viewBox="0 0 1000 500">
  <defs>
    <style>
      .cls-1 {
        fill: #fff;
      }
    </style>
  </defs>
  <!-- Generator: Adobe Illustrator 28.7.1, SVG Export Plug-In . SVG Version: 1.2.0 Build 142)  -->
  <g>
    <g id="Layer_1">
      <g id="Layer_1-2" data-name="Layer_1">
        <g>
          <path class="cls-1" d="M243.6,180.2c-10.3-2.1-19.2-1.9-19.6-9.9v-29.2s.2-7.1,8.4-8.6c0,0,12.9-2.6,13.1-12.7v-.2h0v-4.4h0v-.2c-.2-10.1-13.1-12.7-13.1-12.7-8.2-1.5-8.4-8.6-8.4-8.6v-29.2c.4-8,7.5-7.7,17.8-9.9,10.3-2.1,8-15.7,8-15.7-.4-11.2-9.5-11-9.5-11h-34c-7.1,0-12.9,5.8-12.9,12.9v153.1c0,7.1,5.8,12.9,12.9,12.9h35.8s9,.2,9.5-11c0,0,2.4-13.5-8-15.7h0Z"/>
          <path class="cls-1" d="M810.9,170.5c-10.3-2.1-19.2-1.9-19.6-9.9v-29.2s.2-7.1,8.4-8.6c0,0,12.9-2.6,13.1-12.7v-.2h0v-4.4h0v-.2c-.2-10.1-13.1-12.7-13.1-12.7-8.2-1.5-8.4-8.6-8.4-8.6v-29.2c.4-8,7.5-7.7,17.8-9.9,10.3-2.1,8-15.7,8-15.7-.4-11.2-9.5-11-9.5-11h-34c-7.1,0-12.9,5.8-12.9,12.9v153.1c0,7.1,5.8,12.9,12.9,12.9h35.8s9,.2,9.5-11c0,0,2.4-13.5-8-15.7h0Z"/>
          <path class="cls-1" d="M308.5,66.7l7.9,37.4c.5,2.4,3.9,2.3,4.4,0l6.8-36.3s3-11.6,14-11.8c0,0,15-1.9,14.8,12.5l-11.3,69.3c-.8,4.6-.8,9.3,0,14l11.4,70.8s1.5,11.6-11.4,12.9-17.2-7.5-18.7-15.3-3.1-18-5-29.7-5.5-3.4-6,0l-5.7,34.5s-3.4,11.4-15.5,10.7c-12-.8-14-5.5-12.7-16.2l11.2-64.2c1.1-6.2,1.1-12.6,0-18.8l-11.6-64.7s-3.3-13.3,9.8-15.8c0,0,14.6-3.3,17.6,10.8h0Z"/>
          <path class="cls-1" d="M436,22l-38.9-1.5s-14.8-2.1-14.8,15v150.9s-.2,12.3,11.4,13.3h8.4s9.5-.6,9.9-12.3c.4-11.6,0-51.4,0-51.4,0,0-.4-8,8.6-8.2l13.8-1.3s17.4-.6,19.1-20.4v-57.8s.4-23.6-17.4-26.4h-.1ZM418.9,96s-5.7,0-5.4-11.2v-20.6s-1-11.6,4.3-12,6.6,4.1,6.6,18.3,1.6,25.2-5.4,25.6h-.1Z"/>
          <path class="cls-1" d="M492.9,48.5s14-2.6,15,13.8v121.5s-1.2,13.4,8,14.8l9.2,1.3s8.4,1.3,8.4,9.9,0,16.3-9.9,17.6h-34.6s-11.6-.6-11.4-15.3c0,0-.7-147.5,0-148.8s-2.6-14.2,15.3-14.8h0Z"/>
          <path class="cls-1" d="M625.8,170.1V47.4c-.4-25.4-20.2-26.7-20.2-26.7h-30.1s-19.8,1.3-20.2,26.7v122.8s-3.9,30.3,27.5,30.3h15.5c31.4,0,27.5-30.3,27.5-30.3h0ZM596.8,159.6s-.2,10.5-6.2,9.2c0,0-6.2-.2-6.2-11.8V59.9s-.4-7.7,6.2-7.3c0,0,6-1.5,6.2,8,.2,9.5,0,99.1,0,99.1h0Z"/>
          <path class="cls-1" d="M841.6,390.3v-122.8c-.4-25.4-20.2-26.7-20.2-26.7h-30.1s-19.8,1.3-20.2,26.7v122.8s-3.9,30.3,27.5,30.3h15.5c31.4,0,27.5-30.3,27.5-30.3ZM812.6,379.7s-.2,10.5-6.2,9.2c0,0-6.2-.2-6.2-11.8v-97.2s-.4-7.7,6.2-7.3c0,0,6-1.5,6.2,8s0,99.1,0,99.1h0Z"/>
          <path class="cls-1" d="M332.6,422v-122.8c-.4-25.4-20.2-26.7-20.2-26.7h-30.1s-19.8,1.3-20.2,26.7v122.8s-3.9,30.3,27.5,30.3h15.5c31.4,0,27.5-30.3,27.5-30.3h0ZM303.6,411.5s-.2,10.5-6.2,9.2c0,0-6.2-.2-6.2-11.8v-97.2s-.4-7.7,6.2-7.3c0,0,6-1.5,6.2,8s0,99.1,0,99.1h0Z"/>
          <path class="cls-1" d="M733.9,193.1l-.9-117.8c-.2-25.8-20.4-27.5-20.4-27.5h-34c-17.8,0-17,14-17,14,0,0-.2,136.3,0,151.8s13.8,13.5,13.8,13.5h39.3c19.8-1.9,19.1-34,19.1-34h.1ZM702.7,187.8s-.2,10.5-5.6,9.2c0,0-5.6-.2-5.6-11.8v-97.2s-.4-7.7,5.6-7.3c0,0,5.4-1.5,5.6,8,.2,9.5,0,99.1,0,99.1h0Z"/>
          <path class="cls-1" d="M158.3,278.1s-2.3-36.4,16.9-38.1h35.3s18.1-.6,19.5,22.6v41.7s.3,11.9-12.9,13-16.9-8.6-16.9-15.8.3-16.5.5-22.1-.7-4.9-2.3-6.7c-3.1-3.7-8.3-7.5-9.9,6l.9,98.3s-.9,10.9,4.8,10.6,6.3-9.5,6.3-12.3.3-32.1.3-32.1c0,0,2-14,14.9-13.2,12.9.9,13.8,8,14.3,12.6s0,45,0,45c0,0,2.6,24.3-16.7,30.1-1.9.6-3.9.8-5.9.8h-27s-22.2-.3-22.2-30.4v-110.1h0Z"/>
          <path class="cls-1" d="M435.6,364.9c-.1-17.2-3-20.6-4.8-24.7-1.7-4-.9-5.4-.9-5.4,3.7-6,6.3-15.2,5.4-38.7s-2-29-2-29c-2.9-13.8-18.1-15.8-18.1-15.8,0,0-26.9-.9-39.3,0-12.3.9-12.6,12-12.6,12,0,0,.3,149.3,0,153.6s4.3,14.3,17.2,13.5c12.9-.8,12.9-12.1,12.9-12.1,0,0,0-44.4.3-50.7.3-6.3,0-11.5,5.7-13.8s6.3,8.4,6.3,8.4l-.3,51.5c.9,7.5,6.6,17.5,18.3,16.6,11.8-.9,11.6-13.2,11.6-13.2,0,0,.1-35.3,0-52.5l.3.3ZM399.6,319s-5.4-.6-5.1-8.6,0-22.1,0-22.1c0,0,.5-7.3,5.1-5.7,0,0,5.5-2.3,5.5,5.7v23.8s1.1,6.9-5.5,6.9h0Z"/>
          <path class="cls-1" d="M641.6,332.4c-.6-4.6-1.4-11.8-14.3-12.6-12.9-.9-14.9,13.2-14.9,13.2,0,0-.3,29.2-.3,32.1s-.6,12-6.3,12.3c-5.8.3-4.8-10.6-4.8-10.6l-.9-98.3c1.6-13.5,6.8-9.7,9.9-6,1.6,1.9,2.4,4.3,2.3,6.7-.2,5.6-.5,16.9-.5,22.1s3.7,16.9,16.9,15.8,12.9-13,12.9-13v-41.7c-1.4-23.2-19.5-22.6-19.5-22.6h-35.3c-19.2,1.7-16.9,38.1-16.9,38.1v110.1c0,22.9,12.7,28.5,18.8,29.9.3.2.6.3.9.5,5.4,2,8.6,11,9.7,18.5,1.1,7.4-6.9,13.2-2.9,20.1s17.8,1.4,21.5-6.6-.9-20.6-1.4-25.8c-.6-5.2,4.9-6.2,4.9-6.2v-.2c1.2-.1,2.3-.3,3.4-.7,19.3-5.8,16.7-30.1,16.7-30.1,0,0,.6-40.4,0-45h0Z"/>
          <path class="cls-1" d="M745.6,464.7c-.6-6.9-7.5-144.2-7.5-145s1.4-16.1-14.6-17.2-32.4,0-32.4,0c0,0-13,0-13.8,15.5l-7.7,152.2s-1.4,10,10.6,11.5c12,1.4,16.9-5.4,18.1-12.9,1.1-7.5,1.7-22.4,1.7-22.4,0,0,.9-7.5,7.7-7.5s7.5,15.5,7.5,15.5l1.7,14.3s.6,13,14.3,13.1c13.8,0,14.9-10.2,14.3-17.1h.1ZM710.6,402.7c-2.6,2.6-7.2,0-7.2-6.9s4.2-42.7,4.2-42.7c0,0,5.6,47,3,49.6Z"/>
          <path class="cls-1" d="M704.9,264.9l20.1,2.9s10.2-1.4,9,10.3c-1.2,11.8-11.8,15.8-19.6,14.3-7.7-1.4-14.9-3.2-21.5-3.2s-13.2,0-12.9-7.7,4.9-19.5,24.9-16.6h0Z"/>
          <path class="cls-1" d="M542.2,442.3c-.6-6.9-7.5-144.2-7.5-145s1.4-16.1-14.6-17.2c-16.1-1.1-32.4,0-32.4,0,0,0-13,0-13.8,15.5l-7.7,152.2s-1.4,10,10.6,11.5c12,1.4,16.9-5.4,18.1-12.9,1.1-7.5,1.7-22.4,1.7-22.4,0,0,.9-7.5,7.7-7.5s7.5,15.5,7.5,15.5l1.7,14.3s.6,13,14.3,13.1c13.8,0,14.9-10.2,14.3-17.1h0ZM526.3,354.9c-7.7,12-24.1,26.7-24.1,26.7l-20.4-21.5s-8.7-12-4.5-24.7c4.2-12.6,15.7-16.3,25.7-4.7,0,0,9.5-10.5,17.2-5.4,7.7,5.2,13.8,17.5,6,29.5h0Z"/>
        </g>
      </g>
    </g>
  </g>
</svg>